<svg style="width:5rem;" viewBox="0 0 56 55">
    <g fill="none" fill-rule="evenodd">
        <path
            d="M47.825 54.5H8.175a5.485 5.485 0 01-3.802-1.526 5.485 5.485 0 01-1.693-3.73l-1.903-43a5.483 5.483 0 011.437-3.957A5.483 5.483 0 016.017.506L49.73.5c1.518 0 2.893.616 3.889 1.61a5.483 5.483 0 011.61 3.88L53.32 49.242a5.485 5.485 0 01-1.693 3.731 5.485 5.485 0 01-3.802 1.526z"
            stroke="#BABABA"></path>
        <path
            d="M28.06 25.667h13.07l8.238-9.195c-7.061-6.093-14.164-9.139-21.309-9.139-7.144 0-14.287 3.046-21.427 9.139l8.239 9.195h13.188zM16.211 11l1.473 2.933M40.526 11l-1.473 2.933M27.632 7.333V13.2"
            stroke="#BABABA"></path>
        <path fill="#09F" d="M27.953 15.4L25.79 25.667h4.422z"></path>
    </g>
    <g fill="none" fill-rule="evenodd">
        <path
            d="M47.825 54.5H8.175a5.485 5.485 0 01-3.802-1.526 5.485 5.485 0 01-1.693-3.73l-1.903-43a5.483 5.483 0 011.437-3.957A5.483 5.483 0 016.017.506L49.73.5c1.518 0 2.893.616 3.889 1.61a5.483 5.483 0 011.61 3.88L53.32 49.242a5.485 5.485 0 01-1.693 3.731 5.485 5.485 0 01-3.802 1.526z"
            stroke="#BABABA"></path>
        <path
            d="M28.06 25.667h13.07l8.238-9.195c-7.061-6.093-14.164-9.139-21.309-9.139-7.144 0-14.287 3.046-21.427 9.139l8.239 9.195h13.188zM16.211 11l1.473 2.933M40.526 11l-1.473 2.933M27.632 7.333V13.2"
            stroke="#BABABA"></path>
        <path fill="#09F" d="M27.953 15.4L25.79 25.667h4.422z"></path>
    </g>
    <g fill="none" fill-rule="evenodd">
        <path
            d="M47.825 54.5H8.175a5.485 5.485 0 01-3.802-1.526 5.485 5.485 0 01-1.693-3.73l-1.903-43a5.483 5.483 0 011.437-3.957A5.483 5.483 0 016.017.506L49.73.5c1.518 0 2.893.616 3.889 1.61a5.483 5.483 0 011.61 3.88L53.32 49.242a5.485 5.485 0 01-1.693 3.731 5.485 5.485 0 01-3.802 1.526z"
            stroke="#BABABA"></path>
        <path
            d="M28.06 25.667h13.07l8.238-9.195c-7.061-6.093-14.164-9.139-21.309-9.139-7.144 0-14.287 3.046-21.427 9.139l8.239 9.195h13.188zM16.211 11l1.473 2.933M40.526 11l-1.473 2.933M27.632 7.333V13.2"
            stroke="#BABABA"></path>
        <path fill="#09F" d="M27.953 15.4L25.79 25.667h4.422z"></path>
    </g>
</svg>