<svg style="width:5rem;" viewBox="0 0 56 58"><g fill="none" fill-rule="evenodd"><path stroke="#BABABA" stroke-linecap="square" d="M4.911 42.5H51"></path><path d="M51.5 50.5h-47V27c0-1.243.504-2.368 1.318-3.182A4.486 4.486 0 019 22.5h38c1.243 0 2.368.504 3.182 1.318A4.486 4.486 0 0151.5 27v23.5z" stroke="#BABABA"></path><rect stroke="#BABABA" x=".5" y="50.5" width="55" height="7" rx="3.5"></rect><path fill="#BABABA" d="M16 14h1v9h-1zM28 14h1v9h-1zM40 14h1v9h-1z"></path><path d="M5 30c2.601 2.667 4.877 4 6.827 4 2.925 0 4.91-4 6.221-4s3.852 4 7.208 4c3.355 0 5.407-4 7.334-4 1.927 0 3.856 4 6.598 4 2.743 0 4.67-4 6.481-4 1.207 0 2.984 1.06 5.331 3.18" stroke="#BABABA"></path><path d="M15.475 0c.564 2.94.201 4.925-1.09 5.953-1.938 1.54-1.956 6.07.674 7.592 2.63 1.522 4.941-.962 4.941-4.66C20 6.42 18.492 3.458 15.475 0zM27.475 0c.564 2.94.201 4.925-1.09 5.953-1.938 1.54-1.956 6.07.674 7.592 2.63 1.522 4.941-.962 4.941-4.66C32 6.42 30.492 3.458 27.475 0zM39.475 0c.564 2.94.201 4.925-1.09 5.953-1.938 1.54-1.956 6.07.674 7.592 2.63 1.522 4.941-.962 4.941-4.66C44 6.42 42.492 3.458 39.475 0z" fill="#09F"></path></g><g fill="none" fill-rule="evenodd"><path stroke="#BABABA" stroke-linecap="square" d="M4.911 42.5H51"></path><path d="M51.5 50.5h-47V27c0-1.243.504-2.368 1.318-3.182A4.486 4.486 0 019 22.5h38c1.243 0 2.368.504 3.182 1.318A4.486 4.486 0 0151.5 27v23.5z" stroke="#BABABA"></path><rect stroke="#BABABA" x=".5" y="50.5" width="55" height="7" rx="3.5"></rect><path fill="#BABABA" d="M16 14h1v9h-1zM28 14h1v9h-1zM40 14h1v9h-1z"></path><path d="M5 30c2.601 2.667 4.877 4 6.827 4 2.925 0 4.91-4 6.221-4s3.852 4 7.208 4c3.355 0 5.407-4 7.334-4 1.927 0 3.856 4 6.598 4 2.743 0 4.67-4 6.481-4 1.207 0 2.984 1.06 5.331 3.18" stroke="#BABABA"></path><path d="M15.475 0c.564 2.94.201 4.925-1.09 5.953-1.938 1.54-1.956 6.07.674 7.592 2.63 1.522 4.941-.962 4.941-4.66C20 6.42 18.492 3.458 15.475 0zM27.475 0c.564 2.94.201 4.925-1.09 5.953-1.938 1.54-1.956 6.07.674 7.592 2.63 1.522 4.941-.962 4.941-4.66C32 6.42 30.492 3.458 27.475 0zM39.475 0c.564 2.94.201 4.925-1.09 5.953-1.938 1.54-1.956 6.07.674 7.592 2.63 1.522 4.941-.962 4.941-4.66C44 6.42 42.492 3.458 39.475 0z" fill="#09F"></path></g><g fill="none" fill-rule="evenodd"><path stroke="#BABABA" stroke-linecap="square" d="M4.911 42.5H51"></path><path d="M51.5 50.5h-47V27c0-1.243.504-2.368 1.318-3.182A4.486 4.486 0 019 22.5h38c1.243 0 2.368.504 3.182 1.318A4.486 4.486 0 0151.5 27v23.5z" stroke="#BABABA"></path><rect stroke="#BABABA" x=".5" y="50.5" width="55" height="7" rx="3.5"></rect><path fill="#BABABA" d="M16 14h1v9h-1zM28 14h1v9h-1zM40 14h1v9h-1z"></path><path d="M5 30c2.601 2.667 4.877 4 6.827 4 2.925 0 4.91-4 6.221-4s3.852 4 7.208 4c3.355 0 5.407-4 7.334-4 1.927 0 3.856 4 6.598 4 2.743 0 4.67-4 6.481-4 1.207 0 2.984 1.06 5.331 3.18" stroke="#BABABA"></path><path d="M15.475 0c.564 2.94.201 4.925-1.09 5.953-1.938 1.54-1.956 6.07.674 7.592 2.63 1.522 4.941-.962 4.941-4.66C20 6.42 18.492 3.458 15.475 0zM27.475 0c.564 2.94.201 4.925-1.09 5.953-1.938 1.54-1.956 6.07.674 7.592 2.63 1.522 4.941-.962 4.941-4.66C32 6.42 30.492 3.458 27.475 0zM39.475 0c.564 2.94.201 4.925-1.09 5.953-1.938 1.54-1.956 6.07.674 7.592 2.63 1.522 4.941-.962 4.941-4.66C44 6.42 42.492 3.458 39.475 0z" fill="#09F"></path></g></svg>